<svg xmlns="http://www.w3.org/2000/svg" viewBox="0 0 600 600">
    <path fill="white" d="M70.33968,390.83c0,5.3401-4.34763,9.4953-9.14927,8.70177-29.37827-4.85514-51.90334-32.73253-51.90334-66.39594s22.52507-61.5408,51.90334-66.39594c4.80164-.79353,9.14927,3.36167,9.14927,8.70177Z"></path>
    <path fill="white" d="M529.66032,390.83c0,5.3401,4.34763,9.4953,9.14927,8.70177,29.37827-4.85514,51.90334-32.73253,51.90334-66.39594s-22.52507-61.5408-51.90334-66.39594c-4.80164-.79353-9.14927,3.36167-9.14927,8.70177Z"></path>
    <path fill="white" d="M433.96227,173.78773H320.34563l-3.27525-34.213a50.72417,50.72417,0,1,0-34.157-.006l-3.27023,34.21905H166.04062a77.83255,77.83255,0,0,0-77.83209,77.83284V410.88849a77.8324,77.8324,0,0,0,77.83209,77.83284h40.94172v49.915c0,9.56364,6.53342,18.42834,15.97316,19.96544a19.214,19.214,0,0,0,22.43118-18.93426V526.72758a5.401,5.401,0,0,1,10.80192,0v11.90875c0,9.56364,6.53443,18.42834,15.97316,19.96544A19.21433,19.21433,0,0,0,294.594,539.66751V526.72758a5.40046,5.40046,0,0,1,10.80091,0v11.90875c0,9.56364,6.53443,18.42834,15.97417,19.96544a19.214,19.214,0,0,0,22.43118-18.93426V526.72758a5.401,5.401,0,0,1,10.80192,0v11.90875c0,9.56389,6.53443,18.42834,15.97316,19.96544a19.214,19.214,0,0,0,22.43119-18.93426V488.72133h40.93568a77.85251,77.85251,0,0,0,77.8532-77.85245V251.62057A77.83277,77.83277,0,0,0,433.96227,173.78773Zm-198.146,248.52746c-25.3375,9.97682-64.919-1.80325-84.17149-21.05544C132.3873,382.002,129.38951,344.183,148.645,324.92782c19.25144-19.25219,69.59368,17.43461,88.20474,37.31787C272.9107,400.77093,259.13311,413.13357,235.81626,422.31519Zm85.981,42.25489H278.21566a6.21083,6.21083,0,0,1-5.37834-9.31986l21.78579-37.73356a6.21657,6.21657,0,0,1,10.76672,0l21.78579,37.73356A6.2127,6.2127,0,0,1,321.79728,464.57008ZM448.3551,401.25975c-19.25244,19.25219-58.834,31.03226-84.17149,21.05544-23.31786-9.18162-37.09444-21.54426-1.03344-60.0695,18.61106-19.88326,68.95331-56.57006,88.20574-37.31787C470.61036,344.183,467.61357,382.002,448.3551,401.25975Z"></path>
</svg>
